{"title":"Naruto Shippuuden - 333 [720p] [ENG-SUBBED] [GWC].mkv","uid":8993023,"size":97957285,"categoryP":"video","categoryS":"tv_shows","magnet":"?xt=urn:btih:b0841c636a38e98fa5394c9bf911c557891d28c8&amp;dn=Naruto+Shippuuden+-+333+%5B720p%5D+%5BENG-SUBBED%5D+%5BGWC%5D.mkv&amp;tr=udp%3A%2F%2Ftracker.openbittorrent.com%3A80&amp;tr=udp%3A%2F%2Fopen.demonii.com%3A1337&amp;tr=udp%3A%2F%2Ftracker.coppersurfer.tk%3A6969&amp;tr=udp%3A%2F%2Fexodus.desync.com%3A6969","seeders":0,"leechers":1,"uploader":"canc232","files":1,"time":1380836744,"description":"Naruto Shippuuden - 333 [720p] [ENG-SUBBED] [GWC]\nNaruto Shippuuden Ep:333 - The Risks of the Reanimation Jutsu\n\nTHUMBNAIL IMAGE :\n &lt;a href=&quot;\nhttp://img854.imageshack.us/img854/9576/umja.jpg&quot; rel=&quot;nofollow&quot; target=&quot;_NEW&quot;&gt;\nhttp://img854.imageshack.us/img854/9576/umja.jpg&lt;/a&gt;\n\n\nMEDIA INFO :\n\nGeneral\nFormat : Matroska \nFile size : 93.4 MiB \nDuration : 23mn 9s \nOverall bit rate : 564 Kbps \nWriting application : mkvmerge v6.4.1 ('Omega Point')\n\nVideo \nID : 1 \nFormat : AVC \nFormat profile : &lt;a class=&quot;__cf_email__&quot; href=&quot;/cdn-cgi/l/email-protection&quot; data-cfemail=&quot;89c1e0eee1c9c5bda7b8&quot;&gt;[email&amp;#160;protected]&lt;/a&gt;&lt;script cf-hash='f9e31' type=&quot;text/javascript&quot;&gt;\n/* &lt;![CDATA[ */!function(){try{var t=&quot;currentScript&quot;in document?document.currentScript:function(){for(var t=document.getElementsByTagName(&quot;script&quot;),e=t.length;e--;)if(t[e].getAttribute(&quot;cf-hash&quot;))return t[e]}();if(t&amp;&amp;t.previousSibling){var e,r,n,i,c=t.previousSibling,a=c.getAttribute(&quot;data-cfemail&quot;);if(a){for(e=&quot;&quot;,r=parseInt(a.substr(0,2),16),n=2;a.length-n;n+=2)i=parseInt(a.substr(n,2),16)^r,e+=String.fromCharCode(i);e=document.createTextNode(e),c.parentNode.replaceChild(e,c)}}}catch(u){}}();/* ]]&gt; */&lt;/script&gt; \nFormat settings, CABAC : Yes \nFormat settings, ReFrames : 11 frames \nDuration : 23mn 9s \nBit rate : 510 Kbps \nWidth : 1 280 pixels \nHeight : 720 pixels \nDisplay aspect ratio : 16:9 \nFrame rate mode : Constant \nFrame rate : 23.976 fps \nStream size : 82.3 MiB (88%) \nTitle : Naruto Shippuuden - 333 [720p] [ENG-SUBBED] [GWC] \nWriting library : x264 core\nLanguage : English \n\nAudio \nFormat : Vorbis  \nDuration : 23mn 9s \nBit rate mode : Variable \nBit rate : 56.0 Kbps \nChannel(s) : 2 channels \nSampling rate : 44.1 KHz \nCompression mode : Lossy \nStream size : 9.28 MiB (10%) \nTitle : Naruto Shippuuden - 333 [720p] [ENG-SUBBED] [GWC] \nWriting library : aoTuV \n\nText \nFormat : UTF-8 \nCodec ID : S_TEXT/UTF8 \nCodec ID/Info : UTF-8 Plain Text \nTitle : [GWC] \nLanguage : English","torrent":{"xt":"urn:btih:b0841c636a38e98fa5394c9bf911c557891d28c8","amp;dn":"Naruto+Shippuuden+-+333+%5B720p%5D+%5BENG-SUBBED%5D+%5BGWC%5D.mkv","amp;tr":["udp%3A%2F%2Ftracker.openbittorrent.com%3A80","udp%3A%2F%2Fopen.demonii.com%3A1337","udp%3A%2F%2Ftracker.coppersurfer.tk%3A6969","udp%3A%2F%2Fexodus.desync.com%3A6969"],"infoHash":"b0841c636a38e98fa5394c9bf911c557891d28c8","infoHashBuffer":{"type":"Buffer","data":[176,132,28,99,106,56,233,143,165,57,76,155,249,17,197,87,137,29,40,200]},"announce":[],"urlList":[]}}